General
Complete name                            : ../.././Samples/dvd.mpeg
Format                                   : MPEG-PS
File size                                : 28.4 MiB
Duration                                 : 29 s 400 ms
Overall bit rate mode                    : Variable
Overall bit rate                         : 8 089 kb/s

Video
ID                                       : 224 (0xE0)
Format                                   : MPEG Video
Format version                           : Version 2
Format profile                           : Main@Main
Format settings                          : CustomMatrix / BVOP
Format settings, BVOP                    : Yes
Format settings, Matrix                  : Custom
Format settings, GOP                     : M=3, N=15
Duration                                 : 29 s 400 ms
Bit rate mode                            : Variable
Bit rate                                 : 6 278 kb/s
Maximum bit rate                         : 8 000 kb/s
Width                                    : 720 pixels
Height                                   : 576 pixels
Display aspect ratio                     : 16:9
Frame rate                               : 25.000 FPS
Standard                                 : PAL
Color space                              : YUV
Chroma subsampling                       : 4:2:0
Bit depth                                : 8 bits
Compression mode                         : Lossy
Bits/(Pixel*Frame)                       : 0.606
Time code of first frame                 : 00:00:00:00
Time code source                         : Group of pictures header
GOP, Open/Closed                         : Closed
Stream size                              : 22.0 MiB (78%)
Color primaries                          : BT.601 PAL
Transfer characteristics                 : BT.470 System B, BT.470 System G
Matrix coefficients                      : BT.470 System B, BT.470 System G

Audio #1
ID                                       : 189 (0xBD)-128 (0x80)
Format                                   : AC-3
Format/Info                              : Audio Coding 3
Muxing mode                              : DVD-Video
Duration                                 : 28 s 352 ms
Bit rate mode                            : Constant
Bit rate                                 : 448 kb/s
Channel(s)                               : 6 channels
Channel positions                        : Front: L C R, Side: L R, LFE
Sampling rate                            : 48.0 kHz
Frame rate                               : 31.250 FPS (1536 SPF)
Bit depth                                : 16 bits
Compression mode                         : Lossy
Delay relative to video                  : 678 ms
Stream size                              : 1.51 MiB (5%)
Service kind                             : Complete Main

Audio #2
ID                                       : 189 (0xBD)-129 (0x81)
Format                                   : AC-3
Format/Info                              : Audio Coding 3
Muxing mode                              : DVD-Video
Duration                                 : 28 s 416 ms
Bit rate mode                            : Constant
Bit rate                                 : 448 kb/s
Channel(s)                               : 6 channels
Channel positions                        : Front: L C R, Side: L R, LFE
Sampling rate                            : 48.0 kHz
Frame rate                               : 31.250 FPS (1536 SPF)
Bit depth                                : 16 bits
Compression mode                         : Lossy
Delay relative to video                  : 600 ms
Stream size                              : 1.52 MiB (5%)
Service kind                             : Complete Main

Audio #3
ID                                       : 189 (0xBD)-138 (0x8A)
Format                                   : DTS
Format/Info                              : Digital Theater Systems
Muxing mode                              : DVD-Video
Duration                                 : 28 s 651 ms
Bit rate mode                            : Constant
Bit rate                                 : 754 kb/s
Channel(s)                               : 6 channels
Channel positions                        : Front: L C R, Side: L R, LFE
Sampling rate                            : 48.0 kHz
Frame rate                               : 93.750 FPS (512 SPF)
Bit depth                                : 24 bits
Compression mode                         : Lossy
Delay relative to video                  : 355 ms
Stream size                              : 2.58 MiB (9%)

Text
ID                                       : 189 (0xBD)-32 (0x20)
Format                                   : RLE
Format/Info                              : Run-length encoding
Muxing mode                              : DVD-Video
Duration                                 : 21 s 880 ms
Delay relative to video                  : 4 s 40 ms


General
Complete name                            : ../.././Samples/dvd.mpeg
Format                                   : MPEG-PS
File size                                : 28.4 MiB
Duration                                 : 29 s 400 ms
Overall bit rate mode                    : Variable
Overall bit rate                         : 8 089 kb/s

Video
ID                                       : 224 (0xE0)
Format                                   : MPEG Video
Format version                           : Version 2
Format profile                           : Main@Main
Format settings                          : CustomMatrix / BVOP
Format settings, BVOP                    : Yes
Format settings, Matrix                  : Custom
Format settings, GOP                     : M=3, N=15
Duration                                 : 29 s 400 ms
Bit rate mode                            : Variable
Bit rate                                 : 6 278 kb/s
Maximum bit rate                         : 8 000 kb/s
Width                                    : 720 pixels
Height                                   : 576 pixels
Display aspect ratio                     : 16:9
Frame rate                               : 25.000 FPS
Standard                                 : PAL
Color space                              : YUV
Chroma subsampling                       : 4:2:0
Bit depth                                : 8 bits
Compression mode                         : Lossy
Bits/(Pixel*Frame)                       : 0.606
Time code of first frame                 : 00:00:00:00
Time code source                         : Group of pictures header
GOP, Open/Closed                         : Closed
Stream size                              : 22.0 MiB (78%)
Color primaries                          : BT.601 PAL
Transfer characteristics                 : BT.470 System B, BT.470 System G
Matrix coefficients                      : BT.470 System B, BT.470 System G

Audio #1
ID                                       : 189 (0xBD)-128 (0x80)
Format                                   : AC-3
Format/Info                              : Audio Coding 3
Muxing mode                              : DVD-Video
Duration                                 : 28 s 352 ms
Bit rate mode                            : Constant
Bit rate                                 : 448 kb/s
Channel(s)                               : 6 channels
Channel positions                        : Front: L C R, Side: L R, LFE
Sampling rate                            : 48.0 kHz
Frame rate                               : 31.250 FPS (1536 SPF)
Bit depth                                : 16 bits
Compression mode                         : Lossy
Delay relative to video                  : 678 ms
Stream size                              : 1.51 MiB (5%)
Service kind                             : Complete Main

Audio #2
ID                                       : 189 (0xBD)-129 (0x81)
Format                                   : AC-3
Format/Info                              : Audio Coding 3
Muxing mode                              : DVD-Video
Duration                                 : 28 s 416 ms
Bit rate mode                            : Constant
Bit rate                                 : 448 kb/s
Channel(s)                               : 6 channels
Channel positions                        : Front: L C R, Side: L R, LFE
Sampling rate                            : 48.0 kHz
Frame rate                               : 31.250 FPS (1536 SPF)
Bit depth                                : 16 bits
Compression mode                         : Lossy
Delay relative to video                  : 600 ms
Stream size                              : 1.52 MiB (5%)
Service kind                             : Complete Main

Audio #3
ID                                       : 189 (0xBD)-138 (0x8A)
Format                                   : DTS
Format/Info                              : Digital Theater Systems
Muxing mode                              : DVD-Video
Duration                                 : 28 s 651 ms
Bit rate mode                            : Constant
Bit rate                                 : 754 kb/s
Channel(s)                               : 6 channels
Channel positions                        : Front: L C R, Side: L R, LFE
Sampling rate                            : 48.0 kHz
Frame rate                               : 93.750 FPS (512 SPF)
Bit depth                                : 24 bits
Compression mode                         : Lossy
Delay relative to video                  : 355 ms
Stream size                              : 2.58 MiB (9%)

Text
ID                                       : 189 (0xBD)-32 (0x20)
Format                                   : RLE
Format/Info                              : Run-length encoding
Muxing mode                              : DVD-Video
Duration                                 : 21 s 880 ms
Delay relative to video                  : 4 s 40 ms


